<svg xmlns="http://www.w3.org/2000/svg" viewBox="0 0 512 512" fill="white">
  <defs/>
  <path d="M437.02 74.981C388.668 26.628 324.379 0 256.001 0 192.104 0 130.965 23.626 83.849 66.525c-3.445 3.138-3.694 8.473-.558 11.919 3.139 3.446 8.476 3.696 11.919.558 44.003-40.063 101.105-62.127 160.791-62.127 63.872 0 123.922 24.873 169.088 70.039 45.165 45.164 70.038 105.213 70.038 169.086 0 63.872-24.875 123.922-70.039 169.086-45.165 45.165-105.214 70.038-169.086 70.038s-123.923-24.873-169.088-70.038C41.748 379.921 16.876 319.872 16.876 256c0-56.988 19.279-110.061 55.752-153.483 2.997-3.567 2.533-8.89-1.034-11.887-3.567-2.998-8.891-2.536-11.888 1.034C21.205 137.501 0 195.863 0 256.001c0 68.38 26.628 132.667 74.98 181.018C123.333 485.372 187.622 512 256.001 512s132.667-26.627 181.019-74.98C485.372 388.667 512 324.381 512 256.001c0-68.382-26.628-132.669-74.98-181.02z"/>
  <path d="M373.785 380.704c-3.387 3.202-3.538 8.541-.337 11.928 3.202 3.387 8.541 3.537 11.928.337 18.466-17.451 33-38.027 43.202-61.158 10.566-23.96 15.924-49.468 15.924-75.812 0-103.94-84.561-188.501-188.501-188.501C152.06 67.498 67.5 152.06 67.5 255.999s84.561 188.5 188.501 188.5c36.006 0 71.039-10.235 101.311-29.599 3.925-2.511 5.07-7.729 2.559-11.654-2.51-3.925-7.73-5.071-11.654-2.56-27.551 17.624-59.437 26.94-92.216 26.94-94.635 0-171.627-76.992-171.627-171.627S161.366 84.374 256.001 84.374 427.627 161.366 427.628 256c-.001 47.604-19.122 91.892-53.843 124.704z"/>
</svg>